<?xml version="1.0" encoding="UTF-8"?>
<svg viewBox="0 0 589 592" version="1.1" xmlns="http://www.w3.org/2000/svg" xmlns:xlink="http://www.w3.org/1999/xlink">
    <!-- Generator: Sketch 46.2 (44496) - http://www.bohemiancoding.com/sketch -->
    <title>Slice 1</title>
    <desc>Created with Sketch.</desc>
    <defs></defs>
    <g id="Page-1" stroke="none" stroke-width="1" fill="none" fill-rule="evenodd">
        <g id="Macbook__ipad__iphone" transform="translate(-200.000000, -422.000000)" stroke="#7E89A3">
            <g id="Group" transform="translate(494.553827, 717.864875) rotate(63.000000) translate(-494.553827, -717.864875) translate(275.053827, 501.364875)">
                <path d="M429.257375,292.468711 C440.8612,302.872022 441.3214,318.526788 430.28723,327.437331 L308.545667,425.748619 C297.511497,434.659163 280.819309,434.936099 271.259976,426.36576 L9.478396,191.667694 C-0.0809373064,183.097354 -2.39065127,165.784423 4.31776293,152.99566 L78.3326473,11.8954208 C85.0410615,-0.893342588 99.8837362,-2.82844444 111.487561,7.57486667 L429.257375,292.468711 Z" id="Shape" stroke-width="2" fill-rule="nonzero"></path>
                <path d="M333.937894,370.268141 C342.086805,363.710323 342.167305,352.736584 334.117697,345.757608 C332.098815,344.007245 329.772335,342.684871 327.29472,341.792601 C319.893684,339.127246 311.144042,340.29977 305.216244,345.366594 C297.304021,352.129619 297.223521,363.103359 305.036442,369.877128 C312.849363,376.650897 325.788984,376.825959 333.937894,370.268141 Z" id="Oval" transform="translate(319.665821, 357.740449) rotate(26.000000) translate(-319.665821, -357.740449) "></path>
                <polygon id="Shape" fill-rule="nonzero" points="27.6690131 195.1948 115.321255 54.4553105 342.907237 259.928284 222.095867 369.340619"></polygon>
                <path d="M66.51941,108.305474 C67.2936812,108.99964 67.5650384,110.173436 67.1300978,110.930207 L50.96896,139.049646 C50.5332155,139.807816 49.57572,139.877774 48.8275723,139.207029 L45.7830595,136.477497 C45.0337317,135.805693 44.7786766,134.646513 45.2089224,133.885533 C50.2977747,124.884823 54.114414,118.134292 56.6588402,113.633937 C57.6670121,111.850772 59.17927,109.176025 61.1956139,105.609695 C61.6258596,104.848715 62.6005005,104.792008 63.3735523,105.485082 L66.51941,108.305474 Z" id="Shape"></path>
                <path d="M48.8824258,113.583322 C50.1793806,111.234197 49.612171,107.878713 47.6155277,106.088639 C45.6188843,104.298566 42.9632442,104.76463 41.6839894,107.129624 C40.4047346,109.494618 40.9719442,112.850101 42.9508875,114.624306 C44.9298308,116.398511 47.585471,115.932447 48.8824258,113.583322 Z" id="Oval"></path>
            </g>
        </g>
    </g>
</svg>
